<svg width="279" height="28" viewBox="0 0 279 28" fill="none" xmlns="http://www.w3.org/2000/svg">
<path d="M12.7585 0.818181H18.2301V19.0739C18.2301 20.7614 17.8509 22.2273 17.0923 23.4716C16.3423 24.7159 15.2983 25.6747 13.9602 26.348C12.6222 27.0213 11.0668 27.358 9.29403 27.358C7.71733 27.358 6.28551 27.081 4.99858 26.527C3.72017 25.9645 2.70597 25.1122 1.95597 23.9702C1.20597 22.8196 0.835227 21.375 0.84375 19.6364H6.35369C6.37074 20.3267 6.51136 20.919 6.77557 21.4134C7.0483 21.8991 7.41903 22.2741 7.88778 22.5384C8.36506 22.794 8.92756 22.9219 9.57528 22.9219C10.2571 22.9219 10.8324 22.777 11.3011 22.4872C11.7784 22.1889 12.1406 21.7543 12.3878 21.1832C12.6349 20.6122 12.7585 19.9091 12.7585 19.0739V0.818181ZM46.8665 13.9091C46.8665 16.7642 46.3253 19.1932 45.2429 21.196C44.169 23.1989 42.7031 24.7287 40.8452 25.7855C38.9957 26.8338 36.9162 27.358 34.6065 27.358C32.2798 27.358 30.1918 26.8295 28.3423 25.7727C26.4929 24.7159 25.0313 23.1861 23.9574 21.1832C22.8835 19.1804 22.3466 16.7557 22.3466 13.9091C22.3466 11.054 22.8835 8.625 23.9574 6.62216C25.0313 4.61932 26.4929 3.09375 28.3423 2.04545C30.1918 0.988636 32.2798 0.460226 34.6065 0.460226C36.9162 0.460226 38.9957 0.988636 40.8452 2.04545C42.7031 3.09375 44.169 4.61932 45.2429 6.62216C46.3253 8.625 46.8665 11.054 46.8665 13.9091ZM41.2543 13.9091C41.2543 12.0597 40.9773 10.5 40.4233 9.23011C39.8778 7.96023 39.1065 6.99716 38.1094 6.34091C37.1122 5.68466 35.9446 5.35653 34.6065 5.35653C33.2685 5.35653 32.1009 5.68466 31.1037 6.34091C30.1065 6.99716 29.331 7.96023 28.777 9.23011C28.2315 10.5 27.9588 12.0597 27.9588 13.9091C27.9588 15.7585 28.2315 17.3182 28.777 18.5881C29.331 19.858 30.1065 20.821 31.1037 21.4773C32.1009 22.1335 33.2685 22.4616 34.6065 22.4616C35.9446 22.4616 37.1122 22.1335 38.1094 21.4773C39.1065 20.821 39.8778 19.858 40.4233 18.5881C40.9773 17.3182 41.2543 15.7585 41.2543 13.9091ZM54.0032 27H48.0714L57.1097 0.818181H64.2433L73.2688 27H67.337L60.7788 6.80114H60.5742L54.0032 27ZM53.6325 16.7088H67.6438V21.0298H53.6325V16.7088ZM76.4201 27V0.818181H86.9031C88.8292 0.818181 90.4357 1.10369 91.7227 1.67472C93.0096 2.24574 93.9769 3.03835 94.6246 4.05256C95.2724 5.05824 95.5962 6.21733 95.5962 7.52983C95.5962 8.55256 95.3917 9.4517 94.9826 10.2273C94.5735 10.9943 94.011 11.625 93.2951 12.1193C92.5877 12.6051 91.7781 12.9503 90.8661 13.1548V13.4105C91.8633 13.4531 92.7965 13.7344 93.6658 14.2543C94.5437 14.7741 95.2553 15.5028 95.8008 16.4403C96.3462 17.3693 96.619 18.4773 96.619 19.7642C96.619 21.1534 96.2738 22.3935 95.5835 23.4844C94.9016 24.5668 93.8917 25.4233 92.5536 26.054C91.2156 26.6847 89.5664 27 87.6062 27H76.4201ZM81.9556 22.4744H86.4684C88.011 22.4744 89.136 22.1804 89.8434 21.5923C90.5508 20.9957 90.9045 20.2031 90.9045 19.2145C90.9045 18.4901 90.7298 17.8509 90.3803 17.2969C90.0309 16.7429 89.5323 16.3082 88.8846 15.9929C88.2454 15.6776 87.4826 15.5199 86.5962 15.5199H81.9556V22.4744ZM81.9556 11.7741H86.0593C86.8178 11.7741 87.4911 11.642 88.0792 11.3778C88.6758 11.1051 89.1445 10.7216 89.4854 10.2273C89.8349 9.73295 90.0096 9.14062 90.0096 8.45028C90.0096 7.50426 89.6729 6.74148 88.9996 6.16193C88.3349 5.58239 87.3888 5.29261 86.1616 5.29261H81.9556V11.7741ZM108.553 27V0.818181H125.888V5.3821H114.088V11.6207H124.738V16.1847H114.088V27H108.553ZM129.612 27V0.818181H147.254V5.3821H135.147V11.6207H146.346V16.1847H135.147V22.4361H147.305V27H129.612ZM151.654 27V0.818181H161.984C163.961 0.818181 165.649 1.17187 167.047 1.87926C168.453 2.57812 169.522 3.57102 170.255 4.85795C170.997 6.13636 171.368 7.64062 171.368 9.37074C171.368 11.1094 170.993 12.6051 170.243 13.858C169.493 15.1023 168.406 16.0568 166.983 16.7216C165.568 17.3864 163.855 17.7188 161.843 17.7188H154.927V13.2699H160.949C162.005 13.2699 162.883 13.125 163.582 12.8352C164.281 12.5455 164.801 12.1108 165.142 11.5312C165.491 10.9517 165.666 10.2315 165.666 9.37074C165.666 8.50142 165.491 7.76847 165.142 7.17188C164.801 6.57528 164.277 6.12358 163.569 5.81676C162.87 5.50142 161.988 5.34375 160.923 5.34375H157.19V27H151.654ZM165.794 15.0852L172.301 27H166.19L159.824 15.0852H165.794ZM175.279 27V0.818181H185.609C187.586 0.818181 189.274 1.17187 190.672 1.87926C192.078 2.57812 193.147 3.57102 193.88 4.85795C194.622 6.13636 194.993 7.64062 194.993 9.37074C194.993 11.1094 194.618 12.6051 193.868 13.858C193.118 15.1023 192.031 16.0568 190.608 16.7216C189.193 17.3864 187.48 17.7188 185.468 17.7188H178.552V13.2699H184.574C185.63 13.2699 186.508 13.125 187.207 12.8352C187.906 12.5455 188.426 12.1108 188.767 11.5312C189.116 10.9517 189.291 10.2315 189.291 9.37074C189.291 8.50142 189.116 7.76847 188.767 7.17188C188.426 6.57528 187.902 6.12358 187.194 5.81676C186.495 5.50142 185.613 5.34375 184.548 5.34375H180.815V27H175.279ZM189.419 15.0852L195.926 27H189.815L183.449 15.0852H189.419ZM198.904 27V0.818181H216.547V5.3821H204.44V11.6207H215.639V16.1847H204.44V22.4361H216.598V27H198.904ZM226.483 0.818181V27H220.947V0.818181H226.483ZM231.037 27V0.818181H241.367C243.344 0.818181 245.032 1.17187 246.429 1.87926C247.836 2.57812 248.905 3.57102 249.638 4.85795C250.38 6.13636 250.75 7.64062 250.75 9.37074C250.75 11.1094 250.375 12.6051 249.625 13.858C248.875 15.1023 247.789 16.0568 246.365 16.7216C244.951 17.3864 243.238 17.7188 241.226 17.7188H234.31V13.2699H240.331C241.388 13.2699 242.266 13.125 242.965 12.8352C243.664 12.5455 244.184 12.1108 244.525 11.5312C244.874 10.9517 245.049 10.2315 245.049 9.37074C245.049 8.50142 244.874 7.76847 244.525 7.17188C244.184 6.57528 243.659 6.12358 242.952 5.81676C242.253 5.50142 241.371 5.34375 240.306 5.34375H236.573V27H231.037ZM245.176 15.0852L251.684 27H245.573L239.206 15.0852H245.176ZM259.175 27H253.243L262.282 0.818181H269.415L278.441 27H272.509L265.951 6.80114H265.746L259.175 27ZM258.804 16.7088H272.816V21.0298H258.804V16.7088Z" fill="black"/>
</svg>
